SubSource-HROTd_VROTdd_SLENx_SANGx.ufo
<glyph name="exclam" format="2">
  <advance width="261"/>
  <unicode hex="0021"/>
  <outline>
    <contour>
      <point x="263" y="568" type="curve" smooth="yes"/>
      <point x="292" y="501"/>
      <point x="297" y="457"/>
      <point x="297" y="419" type="curve" smooth="yes"/>
      <point x="297" y="348"/>
      <point x="297" y="291"/>
      <point x="297" y="244" type="curve" smooth="yes"/>
      <point x="297" y="199"/>
      <point x="282" y="167"/>
      <point x="259" y="149" type="curve" smooth="yes"/>
      <point x="206" y="108"/>
      <point x="151" y="180"/>
      <point x="205" y="221" type="curve" smooth="yes"/>
      <point x="206" y="221"/>
      <point x="207" y="242"/>
      <point x="207" y="244" type="curve" smooth="yes"/>
      <point x="207" y="315"/>
      <point x="207" y="372"/>
      <point x="207" y="419" type="curve" smooth="yes"/>
      <point x="207" y="449"/>
      <point x="202" y="481"/>
      <point x="181" y="532" type="curve" smooth="yes"/>
      <point x="154" y="595"/>
      <point x="237" y="630"/>
    </contour>
    <contour>
      <point x="253" y="-125" type="curve" smooth="yes"/>
      <point x="169" y="-112"/>
      <point x="169" y="-4"/>
      <point x="253" y="9" type="curve" smooth="yes"/>
      <point x="320" y="18"/>
      <point x="333" y="-71"/>
      <point x="267" y="-81" type="curve" smooth="yes"/>
      <point x="264" y="-81"/>
      <point x="264" y="-35"/>
      <point x="267" y="-35" type="curve" smooth="yes"/>
      <point x="333" y="-45"/>
      <point x="320" y="-134"/>
    </contour>
  </outline>
</glyph>
<glyph name="numbersign" format="2">
  <advance width="700"/>
  <unicode hex="0023"/>
  <outline>
    <contour>
      <point x="300" y="636" type="curve" smooth="yes"/>
      <point x="252" y="36" type="line" smooth="yes"/>
      <point x="246" y="-31"/>
      <point x="157" y="-24"/>
      <point x="162" y="44" type="curve" smooth="yes"/>
      <point x="210" y="644" type="line" smooth="yes"/>
      <point x="216" y="711"/>
      <point x="305" y="704"/>
    </contour>
    <contour>
      <point x="538" y="636" type="curve" smooth="yes"/>
      <point x="490" y="36" type="line" smooth="yes"/>
      <point x="484" y="-31"/>
      <point x="395" y="-24"/>
      <point x="400" y="44" type="curve" smooth="yes"/>
      <point x="448" y="644" type="line" smooth="yes"/>
      <point x="454" y="711"/>
      <point x="543" y="704"/>
    </contour>
    <contour>
      <point x="615" y="417" type="curve" smooth="yes"/>
      <point x="85" y="417" type="line" smooth="yes"/>
      <point x="17" y="417"/>
      <point x="18" y="507"/>
      <point x="85" y="507" type="curve" smooth="yes"/>
      <point x="615" y="507" type="line" smooth="yes"/>
      <point x="683" y="507"/>
      <point x="683" y="417"/>
    </contour>
    <contour>
      <point x="615" y="173" type="curve" smooth="yes"/>
      <point x="85" y="173" type="line" smooth="yes"/>
      <point x="17" y="173"/>
      <point x="18" y="263"/>
      <point x="85" y="263" type="curve" smooth="yes"/>
      <point x="615" y="263" type="line" smooth="yes"/>
      <point x="683" y="263"/>
      <point x="683" y="173"/>
    </contour>
  </outline>
</glyph>
<glyph name="parenleft" format="2">
  <advance width="452"/>
  <unicode hex="0028"/>
  <outline>
    <contour>
      <point x="490" y="-270" type="curve" smooth="yes"/>
      <point x="449" y="-278"/>
      <point x="397" y="-263"/>
      <point x="339" y="-208" type="curve" smooth="yes"/>
      <point x="253" y="-126"/>
      <point x="189" y="5"/>
      <point x="189" y="185" type="curve" smooth="yes"/>
      <point x="189" y="365"/>
      <point x="253" y="496"/>
      <point x="339" y="578" type="curve" smooth="yes"/>
      <point x="379" y="616"/>
      <point x="418" y="653"/>
      <point x="447" y="686" type="curve" smooth="yes"/>
      <point x="492" y="736"/>
      <point x="559" y="677"/>
      <point x="515" y="626" type="curve" smooth="yes"/>
      <point x="484" y="591"/>
      <point x="444" y="554"/>
      <point x="401" y="512" type="curve" smooth="yes"/>
      <point x="329" y="444"/>
      <point x="279" y="335"/>
      <point x="279" y="185" type="curve" smooth="yes"/>
      <point x="279" y="35"/>
      <point x="329" y="-74"/>
      <point x="401" y="-142" type="curve" smooth="yes"/>
      <point x="425" y="-165"/>
      <point x="455" y="-185"/>
      <point x="472" y="-182" type="curve" smooth="yes"/>
      <point x="538" y="-169"/>
      <point x="556" y="-257"/>
    </contour>
  </outline>
</glyph>
<glyph name="zero" format="2">
  <advance width="592"/>
  <unicode hex="0030"/>
  <outline>
    <contour>
      <point x="440" y="-2" type="curve" smooth="yes"/>
      <point x="474" y="-1"/>
      <point x="507" y="4"/>
      <point x="529" y="20" type="curve" smooth="yes"/>
      <point x="571" y="52"/>
      <point x="582" y="144"/>
      <point x="582" y="221" type="curve" smooth="yes"/>
      <point x="582" y="367"/>
      <point x="520" y="480"/>
      <point x="416" y="480" type="curve" smooth="yes"/>
      <point x="311" y="480"/>
      <point x="250" y="367"/>
      <point x="250" y="221" type="curve" smooth="yes"/>
      <point x="250" y="135"/>
      <point x="283" y="48"/>
      <point x="311" y="12" type="curve" smooth="yes"/>
      <point x="319" y="1"/>
      <point x="321" y="-2"/>
      <point x="333" y="-2" type="curve" smooth="yes"/>
      <point x="400" y="-5"/>
      <point x="397" y="-95"/>
      <point x="329" y="-92" type="curve" smooth="yes"/>
      <point x="290" y="-90"/>
      <point x="266" y="-77"/>
      <point x="241" y="-44" type="curve" smooth="yes"/>
      <point x="203" y="4"/>
      <point x="160" y="109"/>
      <point x="160" y="221" type="curve" smooth="yes"/>
      <point x="160" y="430"/>
      <point x="266" y="570"/>
      <point x="416" y="570" type="curve" smooth="yes"/>
      <point x="565" y="570"/>
      <point x="672" y="430"/>
      <point x="672" y="221" type="curve" smooth="yes"/>
      <point x="672" y="101"/>
      <point x="650" y="-1"/>
      <point x="583" y="-52" type="curve" smooth="yes"/>
      <point x="547" y="-79"/>
      <point x="500" y="-91"/>
      <point x="442" y="-92" type="curve" smooth="yes"/>
      <point x="374" y="-93"/>
      <point x="373" y="-3"/>
    </contour>
  </outline>
</glyph>
<glyph name="three" format="2">
  <advance width="488"/>
  <unicode hex="0033"/>
  <outline>
    <contour>
      <point x="202" y="13" type="curve" smooth="yes"/>
      <point x="248" y="-11"/>
      <point x="300" y="-28"/>
      <point x="348" y="-31" type="curve" smooth="yes"/>
      <point x="423" y="-37"/>
      <point x="497" y="-10"/>
      <point x="478" y="74" type="curve" smooth="yes"/>
      <point x="453" y="185"/>
      <point x="341" y="259"/>
      <point x="285" y="271" type="curve" smooth="yes"/>
      <point x="249" y="278"/>
      <point x="241" y="278"/>
      <point x="220" y="279" type="curve" smooth="yes"/>
      <point x="217" y="279"/>
      <point x="319" y="333"/>
      <point x="327" y="337" type="curve" smooth="yes"/>
      <point x="352" y="349"/>
      <point x="362" y="362"/>
      <point x="378" y="381" type="curve" smooth="yes"/>
      <point x="393" y="398"/>
      <point x="406" y="426"/>
      <point x="416" y="475" type="curve" smooth="yes"/>
      <point x="426" y="530"/>
      <point x="411" y="557"/>
      <point x="375" y="543" type="curve" smooth="yes"/>
      <point x="318" y="521"/>
      <point x="278" y="469"/>
      <point x="210" y="470" type="curve" smooth="yes"/>
      <point x="143" y="471"/>
      <point x="144" y="561"/>
      <point x="212" y="560" type="curve" smooth="yes"/>
      <point x="253" y="559"/>
      <point x="248" y="591"/>
      <point x="343" y="627" type="curve" smooth="yes"/>
      <point x="433" y="662"/>
      <point x="531" y="601"/>
      <point x="504" y="457" type="curve" smooth="yes"/>
      <point x="490" y="386"/>
      <point x="469" y="348"/>
      <point x="446" y="321" type="curve" smooth="yes"/>
      <point x="421" y="293"/>
      <point x="404" y="274"/>
      <point x="367" y="257" type="curve" smooth="yes"/>
      <point x="138" y="144"/>
      <point x="147" y="373"/>
      <point x="224" y="369" type="curve" smooth="yes"/>
      <point x="249" y="368"/>
      <point x="261" y="368"/>
      <point x="303" y="359" type="curve" smooth="yes"/>
      <point x="383" y="343"/>
      <point x="531" y="249"/>
      <point x="566" y="94" type="curve" smooth="yes"/>
      <point x="599" y="-56"/>
      <point x="474" y="-131"/>
      <point x="342" y="-121" type="curve" smooth="yes"/>
      <point x="282" y="-116"/>
      <point x="218" y="-97"/>
      <point x="160" y="-67" type="curve" smooth="yes"/>
      <point x="100" y="-36"/>
      <point x="142" y="44"/>
    </contour>
  </outline>
</glyph>
<glyph name="seven" format="2">
  <advance width="483"/>
  <unicode hex="0037"/>
  <outline>
    <contour>
      <point x="183" y="586" type="curve" smooth="yes"/>
      <point x="223" y="569"/>
      <point x="256" y="560"/>
      <point x="287" y="560" type="curve" smooth="yes"/>
      <point x="358" y="560"/>
      <point x="380" y="560"/>
      <point x="426" y="560" type="curve" smooth="yes"/>
      <point x="535" y="560"/>
      <point x="484" y="659"/>
      <point x="481" y="440" type="curve" smooth="yes"/>
      <point x="478" y="277"/>
      <point x="438" y="141"/>
      <point x="379" y="7" type="curve" smooth="yes"/>
      <point x="360" y="-38"/>
      <point x="325" y="-72"/>
      <point x="280" y="-91" type="curve" smooth="yes"/>
      <point x="218" y="-118"/>
      <point x="182" y="-35"/>
      <point x="244" y="-9" type="curve" smooth="yes"/>
      <point x="269" y="2"/>
      <point x="286" y="18"/>
      <point x="297" y="43" type="curve" smooth="yes"/>
      <point x="352" y="167"/>
      <point x="388" y="291"/>
      <point x="391" y="442" type="curve" smooth="yes"/>
      <point x="391" y="453"/>
      <point x="432" y="470"/>
      <point x="426" y="470" type="curve" smooth="yes"/>
      <point x="358" y="470"/>
      <point x="334" y="470"/>
      <point x="287" y="470" type="curve" smooth="yes"/>
      <point x="245" y="470"/>
      <point x="201" y="481"/>
      <point x="147" y="504" type="curve" smooth="yes"/>
      <point x="85" y="530"/>
      <point x="121" y="613"/>
    </contour>
  </outline>
</glyph>
<glyph name="nine" format="2">
  <advance width="534"/>
  <unicode hex="0039"/>
  <outline>
    <contour>
      <point x="468" y="529" type="curve" smooth="yes"/>
      <point x="501" y="364"/>
      <point x="400" y="239"/>
      <point x="252" y="239" type="curve" smooth="yes"/>
      <point x="128" y="239"/>
      <point x="33" y="330"/>
      <point x="33" y="458" type="curve" smooth="yes"/>
      <point x="33" y="588"/>
      <point x="122" y="687"/>
      <point x="257" y="687" type="curve" smooth="yes"/>
      <point x="372" y="687"/>
      <point x="494" y="600"/>
      <point x="494" y="365" type="curve" smooth="yes"/>
      <point x="494" y="11"/>
      <point x="249" y="-60"/>
      <point x="92" y="24" type="curve" smooth="yes"/>
      <point x="32" y="56"/>
      <point x="75" y="135"/>
      <point x="134" y="104" type="curve" smooth="yes"/>
      <point x="250" y="42"/>
      <point x="404" y="104"/>
      <point x="404" y="365" type="curve" smooth="yes"/>
      <point x="404" y="529"/>
      <point x="337" y="597"/>
      <point x="257" y="597" type="curve" smooth="yes"/>
      <point x="172" y="597"/>
      <point x="123" y="540"/>
      <point x="123" y="458" type="curve" smooth="yes"/>
      <point x="123" y="380"/>
      <point x="176" y="329"/>
      <point x="252" y="329" type="curve" smooth="yes"/>
      <point x="346" y="329"/>
      <point x="401" y="406"/>
      <point x="380" y="511" type="curve" smooth="yes"/>
      <point x="367" y="577"/>
      <point x="455" y="595"/>
    </contour>
  </outline>
</glyph>
<glyph name="F" format="2">
  <advance width="503"/>
  <unicode hex="0046"/>
  <outline>
    <contour>
      <point x="461" y="225" type="curve" smooth="yes"/>
      <point x="397" y="225"/>
      <point x="290" y="263"/>
      <point x="192" y="286" type="curve" smooth="yes"/>
      <point x="162" y="293"/>
      <point x="170" y="251"/>
      <point x="170" y="223" type="curve" smooth="yes"/>
      <point x="170" y="172"/>
      <point x="170" y="159"/>
      <point x="170" y="111" type="curve" smooth="yes"/>
      <point x="170" y="104"/>
      <point x="200" y="-12"/>
      <point x="200" y="-4" type="curve" smooth="yes"/>
      <point x="200" y="157"/>
      <point x="211" y="331"/>
      <point x="200" y="425" type="curve" smooth="yes"/>
      <point x="188" y="529"/>
      <point x="185" y="600"/>
      <point x="290" y="600" type="curve" smooth="yes"/>
      <point x="338" y="600"/>
      <point x="480" y="560"/>
      <point x="543" y="560" type="curve" smooth="yes"/>
      <point x="611" y="560"/>
      <point x="611" y="470"/>
      <point x="543" y="470" type="curve" smooth="yes"/>
      <point x="464" y="470"/>
      <point x="328" y="510"/>
      <point x="290" y="510" type="curve" smooth="yes"/>
      <point x="275" y="510"/>
      <point x="288" y="450"/>
      <point x="290" y="435" type="curve" smooth="yes"/>
      <point x="301" y="331"/>
      <point x="290" y="174"/>
      <point x="290" y="-4" type="curve" smooth="yes"/>
      <point x="290" y="-173"/>
      <point x="80" y="-57"/>
      <point x="80" y="111" type="curve" smooth="yes"/>
      <point x="80" y="183"/>
      <point x="80" y="189"/>
      <point x="80" y="223" type="curve" smooth="yes"/>
      <point x="80" y="328"/>
      <point x="104" y="400"/>
      <point x="212" y="374" type="curve" smooth="yes"/>
      <point x="282" y="357"/>
      <point x="416" y="315"/>
      <point x="461" y="315" type="curve" smooth="yes"/>
      <point x="529" y="315"/>
      <point x="529" y="225"/>
    </contour>
  </outline>
</glyph>
<glyph name="G" format="2">
  <advance width="653"/>
  <unicode hex="0047"/>
  <outline>
    <contour>
      <point x="629" y="465" type="curve" smooth="yes"/>
      <point x="593" y="470"/>
      <point x="535" y="481"/>
      <point x="489" y="481" type="curve" smooth="yes"/>
      <point x="343" y="479"/>
      <point x="255" y="365"/>
      <point x="255" y="221" type="curve" smooth="yes"/>
      <point x="255" y="75"/>
      <point x="336" y="-40"/>
      <point x="481" y="-40" type="curve" smooth="yes"/>
      <point x="545" y="-40"/>
      <point x="572" y="6"/>
      <point x="571" y="41" type="curve" smooth="yes"/>
      <point x="568" y="100"/>
      <point x="559" y="139"/>
      <point x="569" y="201" type="curve" smooth="yes"/>
      <point x="569" y="205"/>
      <point x="599" y="185"/>
      <point x="596" y="185" type="curve" smooth="yes"/>
      <point x="547" y="185"/>
      <point x="500" y="185"/>
      <point x="477" y="185" type="curve" smooth="yes"/>
      <point x="410" y="185"/>
      <point x="410" y="275"/>
      <point x="477" y="275" type="curve" smooth="yes"/>
      <point x="511" y="275"/>
      <point x="563" y="275"/>
      <point x="596" y="275" type="curve" smooth="yes"/>
      <point x="663" y="275"/>
      <point x="672" y="277"/>
      <point x="657" y="187" type="curve" smooth="yes"/>
      <point x="650" y="138"/>
      <point x="658" y="92"/>
      <point x="661" y="45" type="curve" smooth="yes"/>
      <point x="664" y="-26"/>
      <point x="611" y="-130"/>
      <point x="481" y="-130" type="curve" smooth="yes"/>
      <point x="286" y="-130"/>
      <point x="165" y="25"/>
      <point x="165" y="221" type="curve" smooth="yes"/>
      <point x="165" y="414"/>
      <point x="292" y="569"/>
      <point x="489" y="571" type="curve" smooth="yes"/>
      <point x="543" y="571"/>
      <point x="597" y="560"/>
      <point x="641" y="555" type="curve" smooth="yes"/>
      <point x="708" y="546"/>
      <point x="696" y="457"/>
    </contour>
  </outline>
</glyph>
<glyph name="H" format="2">
  <advance width="688"/>
  <unicode hex="0048"/>
  <outline>
    <contour>
      <point x="257" y="568" type="curve" smooth="yes"/>
      <point x="290" y="492"/>
      <point x="291" y="447"/>
      <point x="291" y="404" type="curve" smooth="yes"/>
      <point x="291" y="283"/>
      <point x="291" y="117"/>
      <point x="291" y="10" type="curve" smooth="yes"/>
      <point x="291" y="-191"/>
      <point x="81" y="-47"/>
      <point x="81" y="127" type="curve" smooth="yes"/>
      <point x="81" y="183"/>
      <point x="81" y="226"/>
      <point x="81" y="264" type="curve" smooth="yes"/>
      <point x="81" y="354"/>
      <point x="148" y="399"/>
      <point x="216" y="399" type="curve" smooth="yes"/>
      <point x="321" y="399"/>
      <point x="404" y="399"/>
      <point x="474" y="399" type="curve" smooth="yes"/>
      <point x="510" y="399"/>
      <point x="519" y="411"/>
      <point x="519" y="444" type="curve" smooth="yes"/>
      <point x="519" y="487"/>
      <point x="519" y="521"/>
      <point x="519" y="550" type="curve" smooth="yes"/>
      <point x="519" y="737"/>
      <point x="729" y="617"/>
      <point x="729" y="430" type="curve" smooth="yes"/>
      <point x="729" y="270"/>
      <point x="729" y="75"/>
      <point x="729" y="37" type="curve" smooth="yes"/>
      <point x="729" y="-31"/>
      <point x="719" y="-77"/>
      <point x="667" y="-93" type="curve" smooth="yes"/>
      <point x="602" y="-112"/>
      <point x="576" y="-26"/>
      <point x="641" y="-7" type="curve" smooth="yes"/>
      <point x="643" y="-6"/>
      <point x="639" y="34"/>
      <point x="639" y="37" type="curve" smooth="yes"/>
      <point x="639" y="93"/>
      <point x="639" y="323"/>
      <point x="639" y="430" type="curve" smooth="yes"/>
      <point x="639" y="439"/>
      <point x="609" y="559"/>
      <point x="609" y="550" type="curve" smooth="yes"/>
      <point x="609" y="507"/>
      <point x="609" y="473"/>
      <point x="609" y="444" type="curve" smooth="yes"/>
      <point x="609" y="363"/>
      <point x="563" y="309"/>
      <point x="474" y="309" type="curve" smooth="yes"/>
      <point x="369" y="309"/>
      <point x="286" y="309"/>
      <point x="216" y="309" type="curve" smooth="yes"/>
      <point x="190" y="309"/>
      <point x="171" y="298"/>
      <point x="171" y="264" type="curve" smooth="yes"/>
      <point x="171" y="208"/>
      <point x="171" y="165"/>
      <point x="171" y="127" type="curve" smooth="yes"/>
      <point x="171" y="119"/>
      <point x="201" y="0"/>
      <point x="201" y="10" type="curve" smooth="yes"/>
      <point x="201" y="170"/>
      <point x="201" y="323"/>
      <point x="201" y="404" type="curve" smooth="yes"/>
      <point x="201" y="439"/>
      <point x="202" y="470"/>
      <point x="175" y="532" type="curve" smooth="yes"/>
      <point x="148" y="594"/>
      <point x="230" y="630"/>
    </contour>
  </outline>
</glyph>
<glyph name="M" format="2">
  <advance width="808"/>
  <unicode hex="004D"/>
  <outline>
    <contour>
      <point x="742" y="-17" type="curve" smooth="yes"/>
      <point x="748" y="-12"/>
      <point x="748" y="35"/>
      <point x="748" y="47" type="curve" smooth="yes"/>
      <point x="748" y="102"/>
      <point x="709" y="208"/>
      <point x="683" y="291" type="curve" smooth="yes"/>
      <point x="657" y="373"/>
      <point x="649" y="427"/>
      <point x="637" y="524" type="curve" smooth="yes"/>
      <point x="607" y="786"/>
      <point x="841" y="631"/>
      <point x="751" y="391" type="curve" smooth="yes"/>
      <point x="729" y="334"/>
      <point x="706" y="274"/>
      <point x="684" y="212" type="curve" smooth="yes"/>
      <point x="658" y="140"/>
      <point x="622" y="82"/>
      <point x="587" y="26" type="curve" smooth="yes"/>
      <point x="507" y="-107"/>
      <point x="414" y="-66"/>
      <point x="338" y="111" type="curve" smooth="yes"/>
      <point x="306" y="184"/>
      <point x="276" y="257"/>
      <point x="248" y="328" type="curve" smooth="yes"/>
      <point x="222" y="392"/>
      <point x="199" y="454"/>
      <point x="177" y="512" type="curve" smooth="yes"/>
      <point x="157" y="564"/>
      <point x="291" y="850"/>
      <point x="291" y="406" type="curve" smooth="yes"/>
      <point x="291" y="334"/>
      <point x="291" y="276"/>
      <point x="291" y="227" type="curve" smooth="yes"/>
      <point x="291" y="161"/>
      <point x="291" y="96"/>
      <point x="290" y="31" type="curve"/>
      <point x="290" y="-22"/>
      <point x="275" y="-62"/>
      <point x="246" y="-86" type="curve" smooth="yes"/>
      <point x="195" y="-130"/>
      <point x="136" y="-61"/>
      <point x="188" y="-18" type="curve" smooth="yes"/>
      <point x="197" y="-10"/>
      <point x="200" y="14"/>
      <point x="200" y="33" type="curve" smooth="yes"/>
      <point x="201" y="96"/>
      <point x="201" y="161"/>
      <point x="201" y="227" type="curve" smooth="yes"/>
      <point x="201" y="300"/>
      <point x="201" y="358"/>
      <point x="201" y="406" type="curve" smooth="yes"/>
      <point x="201" y="477"/>
      <point x="136" y="874"/>
      <point x="261" y="544" type="curve" smooth="yes"/>
      <point x="283" y="486"/>
      <point x="306" y="426"/>
      <point x="332" y="362" type="curve" smooth="yes"/>
      <point x="360" y="291"/>
      <point x="390" y="218"/>
      <point x="420" y="147" type="curve" smooth="yes"/>
      <point x="455" y="66"/>
      <point x="474" y="12"/>
      <point x="511" y="72" type="curve" smooth="yes"/>
      <point x="542" y="124"/>
      <point x="576" y="178"/>
      <point x="600" y="242" type="curve" smooth="yes"/>
      <point x="622" y="304"/>
      <point x="645" y="366"/>
      <point x="667" y="423" type="curve" smooth="yes"/>
      <point x="671" y="435"/>
      <point x="725" y="547"/>
      <point x="727" y="534" type="curve" smooth="yes"/>
      <point x="737" y="443"/>
      <point x="745" y="395"/>
      <point x="769" y="319" type="curve" smooth="yes"/>
      <point x="802" y="212"/>
      <point x="838" y="117"/>
      <point x="838" y="47" type="curve" smooth="yes"/>
      <point x="838" y="-13"/>
      <point x="835" y="-54"/>
      <point x="804" y="-83" type="curve" smooth="yes"/>
      <point x="755" y="-129"/>
      <point x="693" y="-64"/>
    </contour>
  </outline>
</glyph>
<glyph name="O" format="2">
  <advance width="732"/>
  <unicode hex="004F"/>
  <outline>
    <contour>
      <point x="-2577.875352381012" y="-88.24921917880299" type="curve" smooth="yes"/>
      <point x="-2609.886465361832" y="-104.25477542543452"/>
      <point x="-2645.4816847896627" y="-103.20679799285513"/>
      <point x="-2688.8129990706143" y="-76.18296687610626" type="curve" smooth="yes"/>
      <point x="-2765.7975596030847" y="-28.17108916250614"/>
      <point x="-2830.999956895158" y="89.04851456734198"/>
      <point x="-2830.9999528756853" y="221.0000018124737" type="curve" smooth="yes"/>
      <point x="-2830.9999466615204" y="424.9990141837833"/>
      <point x="-2694.8080322119904" y="569.9999958115106"/>
      <point x="-2507.999947849498" y="569.9999958115105" type="curve" smooth="yes"/>
      <point x="-2322.1496537968824" y="569.9999958115104"/>
      <point x="-2188.9999550976054" y="424.05865368395996"/>
      <point x="-2188.999961283126" y="220.9999990709168" type="curve" smooth="yes"/>
      <point x="-2188.999965281274" y="89.74854670885998"/>
      <point x="-2230.0183870437286" y="-24.820682067801076"/>
      <point x="-2328.8753382477644" y="-74.24921064239552" type="curve" smooth="yes"/>
      <point x="-2372.931182025245" y="-96.27715613849531"/>
      <point x="-2422.211548861792" y="-104.32010401793998"/>
      <point x="-2486.343319471209" y="-92.21976987114485" type="curve" smooth="yes"/>
      <point x="-2552.672981086125" y="-79.70473930583421"/>
      <point x="-2535.9862736657115" y="8.734809514054584"/>
      <point x="-2469.656612050795" y="-3.7802210512560563" type="curve" smooth="yes"/>
      <point x="-2427.903454161081" y="-11.65817541534852"/>
      <point x="-2397.8072692870196" y="-8.09213254417529"/>
      <point x="-2369.1245963508754" y="6.249219293530167" type="curve" smooth="yes"/>
      <point x="-2301.3628952509525" y="40.130106153653436"/>
      <point x="-2278.9999640236647" y="131.03342307860146"/>
      <point x="-2278.999961283126" y="221.0000018124737" type="curve" smooth="yes"/>
      <point x="-2278.9999566899714" y="371.7843569600733"/>
      <point x="-2369.993927883899" y="479.9999958115104"/>
      <point x="-2507.999947849498" y="479.99999581151053" type="curve" smooth="yes"/>
      <point x="-2647.0663521512643" y="479.99999581151064"/>
      <point x="-2740.999948249645" y="372.86392524094316"/>
      <point x="-2740.9999528756853" y="220.9999990709168" type="curve" smooth="yes"/>
      <point x="-2740.999955732996" y="127.20002853537945"/>
      <point x="-2695.9127171194427" y="34.31303972729838"/>
      <point x="-2641.18692614581" y="0.1829756490879575" type="curve" smooth="yes"/>
      <point x="-2633.879898904068" y="-4.3740952227067"/>
      <point x="-2623.5226594918227" y="-10.44981370560862"/>
      <point x="-2618.1245754855827" y="-7.750771743597923" type="curve" smooth="yes"/>
      <point x="-2557.7507399091787" y="22.436145584830214"/>
      <point x="-2517.501516804608" y="-58.06230185037485"/>
    </contour>
  </outline>
</glyph>
<glyph name="R" format="2">
  <advance width="595"/>
  <unicode hex="0052"/>
  <outline>
    <contour>
      <point x="201" y="-7" type="curve" smooth="yes"/>
      <point x="203" y="-7"/>
      <point x="200" y="39"/>
      <point x="200" y="41" type="curve" smooth="yes"/>
      <point x="200" y="129"/>
      <point x="200" y="299"/>
      <point x="200" y="395" type="curve" smooth="yes"/>
      <point x="200" y="530"/>
      <point x="169" y="600"/>
      <point x="277" y="600" type="curve" smooth="yes"/>
      <point x="307" y="600"/>
      <point x="334" y="600"/>
      <point x="360" y="600" type="curve" smooth="yes"/>
      <point x="493" y="600"/>
      <point x="616" y="476"/>
      <point x="620" y="357" type="curve" smooth="yes"/>
      <point x="624" y="233"/>
      <point x="532" y="153"/>
      <point x="412" y="153" type="curve" smooth="yes"/>
      <point x="375" y="153" type="line" smooth="yes"/>
      <point x="212" y="153"/>
      <point x="94" y="363"/>
      <point x="255" y="363" type="curve" smooth="yes"/>
      <point x="336" y="363"/>
      <point x="393" y="316"/>
      <point x="468" y="226" type="curve" smooth="yes"/>
      <point x="574" y="97"/>
      <point x="653" y="-7"/>
      <point x="664" y="-48" type="curve" smooth="yes"/>
      <point x="681" y="-114"/>
      <point x="594" y="-137"/>
      <point x="576" y="-72" type="curve" smooth="yes"/>
      <point x="570" y="-46"/>
      <point x="465" y="87"/>
      <point x="398" y="168" type="curve" smooth="yes"/>
      <point x="350" y="227"/>
      <point x="307" y="273"/>
      <point x="255" y="273" type="curve" smooth="yes"/>
      <point x="248" y="273"/>
      <point x="368" y="243"/>
      <point x="375" y="243" type="curve" smooth="yes"/>
      <point x="412" y="243" type="line" smooth="yes"/>
      <point x="482" y="243"/>
      <point x="532" y="283"/>
      <point x="530" y="355" type="curve" smooth="yes"/>
      <point x="528" y="428"/>
      <point x="441" y="510"/>
      <point x="360" y="510" type="curve" smooth="yes"/>
      <point x="321" y="510"/>
      <point x="297" y="510"/>
      <point x="277" y="510" type="curve" smooth="yes"/>
      <point x="272" y="510"/>
      <point x="290" y="401"/>
      <point x="290" y="395" type="curve" smooth="yes"/>
      <point x="290" y="251"/>
      <point x="290" y="100"/>
      <point x="290" y="41" type="curve" smooth="yes"/>
      <point x="290" y="-12"/>
      <point x="284" y="-74"/>
      <point x="229" y="-93" type="curve" smooth="yes"/>
      <point x="165" y="-114"/>
      <point x="137" y="-29"/>
    </contour>
  </outline>
</glyph>
<glyph name="Z" format="2">
  <advance width="595"/>
  <unicode hex="005A"/>
  <outline>
    <contour>
      <point x="214" y="579" type="curve" smooth="yes"/>
      <point x="273" y="567"/>
      <point x="379" y="560"/>
      <point x="443" y="560" type="curve" smooth="yes"/>
      <point x="475" y="560"/>
      <point x="488" y="560"/>
      <point x="520" y="564" type="curve" smooth="yes"/>
      <point x="528" y="565"/>
      <point x="492" y="533"/>
      <point x="488" y="527" type="curve" smooth="yes"/>
      <point x="461" y="490"/>
      <point x="449" y="473"/>
      <point x="426" y="442" type="curve" smooth="yes"/>
      <point x="392" y="397"/>
      <point x="278" y="238"/>
      <point x="246" y="192" type="curve" smooth="yes"/>
      <point x="222" y="159"/>
      <point x="202" y="133"/>
      <point x="184" y="107" type="curve" smooth="yes"/>
      <point x="149" y="55"/>
      <point x="232" y="-19"/>
      <point x="303" y="-25" type="curve" smooth="yes"/>
      <point x="340" y="-28"/>
      <point x="361" y="-30"/>
      <point x="402" y="-30" type="curve" smooth="yes"/>
      <point x="461" y="-30"/>
      <point x="528" y="-30"/>
      <point x="574" y="-13" type="curve" smooth="yes"/>
      <point x="637" y="11"/>
      <point x="669" y="-73"/>
      <point x="606" y="-97" type="curve" smooth="yes"/>
      <point x="547" y="-119"/>
      <point x="477" y="-120"/>
      <point x="402" y="-120" type="curve" smooth="yes"/>
      <point x="359" y="-120"/>
      <point x="336" y="-118"/>
      <point x="295" y="-115" type="curve" smooth="yes"/>
      <point x="147" y="-101"/>
      <point x="36" y="48"/>
      <point x="110" y="159" type="curve" smooth="yes"/>
      <point x="130" y="186"/>
      <point x="150" y="211"/>
      <point x="172" y="244" type="curve" smooth="yes"/>
      <point x="204" y="290"/>
      <point x="320" y="449"/>
      <point x="354" y="496" type="curve" smooth="yes"/>
      <point x="377" y="527"/>
      <point x="388" y="542"/>
      <point x="414" y="579" type="curve" smooth="yes"/>
      <point x="526" y="737"/>
      <point x="714" y="493"/>
      <point x="530" y="474" type="curve" smooth="yes"/>
      <point x="494" y="470"/>
      <point x="479" y="470"/>
      <point x="443" y="470" type="curve" smooth="yes"/>
      <point x="373" y="470"/>
      <point x="261" y="477"/>
      <point x="196" y="491" type="curve" smooth="yes"/>
      <point x="130" y="505"/>
      <point x="148" y="593"/>
    </contour>
  </outline>
</glyph>
<glyph name="backslash" format="2">
  <advance width="490"/>
  <unicode hex="005C"/>
  <outline>
    <contour>
      <point x="439" y="-196" type="curve" smooth="yes"/>
      <point x="444" y="-183"/>
      <point x="431" y="-138"/>
      <point x="422" y="-112" type="curve" smooth="yes"/>
      <point x="360" y="78"/>
      <point x="295" y="280"/>
      <point x="226" y="486" type="curve" smooth="yes"/>
      <point x="215" y="521"/>
      <point x="196" y="561"/>
      <point x="163" y="617" type="curve" smooth="yes"/>
      <point x="129" y="676"/>
      <point x="207" y="721"/>
      <point x="241" y="663" type="curve" smooth="yes"/>
      <point x="278" y="599"/>
      <point x="299" y="553"/>
      <point x="312" y="514" type="curve" smooth="yes"/>
      <point x="378" y="316"/>
      <point x="443" y="113"/>
      <point x="508" y="-84" type="curve" smooth="yes"/>
      <point x="530" y="-149"/>
      <point x="536" y="-191"/>
      <point x="525" y="-224" type="curve" smooth="yes"/>
      <point x="503" y="-288"/>
      <point x="418" y="-260"/>
    </contour>
  </outline>
</glyph>
<glyph name="bracketright" format="2">
  <advance width="430"/>
  <unicode hex="005D"/>
  <outline>
    <contour>
      <point x="205" y="-188" type="curve" smooth="yes"/>
      <point x="392" y="-188" type="line"/>
      <point x="347" y="-233" type="line"/>
      <point x="347" y="603" type="line"/>
      <point x="392" y="558" type="line"/>
      <point x="205" y="558" type="line" smooth="yes"/>
      <point x="138" y="558"/>
      <point x="138" y="648"/>
      <point x="205" y="648" type="curve" smooth="yes"/>
      <point x="392" y="648" type="line" smooth="yes"/>
      <point x="417" y="648"/>
      <point x="437" y="628"/>
      <point x="437" y="603" type="curve" smooth="yes"/>
      <point x="437" y="-233" type="line" smooth="yes"/>
      <point x="437" y="-258"/>
      <point x="417" y="-278"/>
      <point x="392" y="-278" type="curve" smooth="yes"/>
      <point x="205" y="-278" type="line" smooth="yes"/>
      <point x="138" y="-278"/>
      <point x="138" y="-188"/>
    </contour>
  </outline>
</glyph>
<glyph name="a" format="2">
  <advance width="584"/>
  <unicode hex="0061"/>
  <outline>
    <contour>
      <point x="516" y="467" type="curve" smooth="yes"/>
      <point x="553" y="363"/>
      <point x="519" y="341"/>
      <point x="519" y="227" type="curve" smooth="yes"/>
      <point x="519" y="58"/>
      <point x="535" y="-103"/>
      <point x="409" y="-130" type="curve" smooth="yes"/>
      <point x="291" y="-155"/>
      <point x="159" y="-30"/>
      <point x="159" y="129" type="curve" smooth="yes"/>
      <point x="159" y="280"/>
      <point x="262" y="388"/>
      <point x="399" y="388" type="curve" smooth="yes"/>
      <point x="535" y="388"/>
      <point x="649" y="272"/>
      <point x="649" y="121" type="curve" smooth="yes"/>
      <point x="649" y="76"/>
      <point x="649" y="22"/>
      <point x="649" y="-1" type="curve" smooth="yes"/>
      <point x="649" y="-55"/>
      <point x="637" y="-93"/>
      <point x="605" y="-115" type="curve" smooth="yes"/>
      <point x="548" y="-152"/>
      <point x="499" y="-76"/>
      <point x="555" y="-39" type="curve" smooth="yes"/>
      <point x="558" y="-38"/>
      <point x="559" y="-4"/>
      <point x="559" y="-1" type="curve" smooth="yes"/>
      <point x="559" y="33"/>
      <point x="559" y="91"/>
      <point x="559" y="121" type="curve" smooth="yes"/>
      <point x="559" y="220"/>
      <point x="487" y="298"/>
      <point x="399" y="298" type="curve" smooth="yes"/>
      <point x="310" y="298"/>
      <point x="249" y="228"/>
      <point x="249" y="129" type="curve" smooth="yes"/>
      <point x="249" y="39"/>
      <point x="323" y="-56"/>
      <point x="391" y="-42" type="curve" smooth="yes"/>
      <point x="444" y="-31"/>
      <point x="429" y="156"/>
      <point x="429" y="227" type="curve" smooth="yes"/>
      <point x="429" y="302"/>
      <point x="455" y="369"/>
      <point x="432" y="437" type="curve" smooth="yes"/>
      <point x="409" y="501"/>
      <point x="494" y="531"/>
    </contour>
  </outline>
</glyph>
<glyph name="h" format="2">
  <advance width="568"/>
  <unicode hex="0068"/>
  <outline>
    <contour>
      <point x="536" y="-10" type="curve" smooth="yes"/>
      <point x="540" y="-7"/>
      <point x="541" y="48"/>
      <point x="541" y="55" type="curve" smooth="yes"/>
      <point x="541" y="103"/>
      <point x="541" y="142"/>
      <point x="541" y="173" type="curve" smooth="yes"/>
      <point x="541" y="264"/>
      <point x="526" y="267"/>
      <point x="418" y="300" type="curve" smooth="yes"/>
      <point x="298" y="336"/>
      <point x="156" y="352"/>
      <point x="156" y="258" type="curve" smooth="yes"/>
      <point x="156" y="190"/>
      <point x="156" y="169"/>
      <point x="156" y="130" type="curve" smooth="yes"/>
      <point x="156" y="121"/>
      <point x="186" y="1"/>
      <point x="186" y="10" type="curve" smooth="yes"/>
      <point x="186" y="94"/>
      <point x="186" y="402"/>
      <point x="186" y="423" type="curve" smooth="yes"/>
      <point x="186" y="483"/>
      <point x="187" y="522"/>
      <point x="160" y="585" type="curve" smooth="yes"/>
      <point x="133" y="647"/>
      <point x="216" y="683"/>
      <point x="242" y="621" type="curve" smooth="yes"/>
      <point x="275" y="544"/>
      <point x="276" y="495"/>
      <point x="276" y="423" type="curve" smooth="yes"/>
      <point x="276" y="391"/>
      <point x="276" y="66"/>
      <point x="276" y="10" type="curve" smooth="yes"/>
      <point x="276" y="-178"/>
      <point x="66" y="-58"/>
      <point x="66" y="130" type="curve" smooth="yes"/>
      <point x="66" y="188"/>
      <point x="66" y="212"/>
      <point x="66" y="258" type="curve" smooth="yes"/>
      <point x="66" y="421"/>
      <point x="237" y="448"/>
      <point x="444" y="386" type="curve" smooth="yes"/>
      <point x="599" y="339"/>
      <point x="631" y="303"/>
      <point x="631" y="173" type="curve" smooth="yes"/>
      <point x="631" y="127"/>
      <point x="631" y="87"/>
      <point x="631" y="55" type="curve" smooth="yes"/>
      <point x="631" y="-17"/>
      <point x="624" y="-66"/>
      <point x="576" y="-90" type="curve" smooth="yes"/>
      <point x="516" y="-120"/>
      <point x="476" y="-40"/>
    </contour>
  </outline>
</glyph>
<glyph name="i" format="2">
  <advance width="231"/>
  <unicode hex="0069"/>
  <outline>
    <contour>
      <point x="176" y="-38" type="curve" smooth="yes"/>
      <point x="187" y="-18"/>
      <point x="190" y="13"/>
      <point x="190" y="45" type="curve" smooth="yes"/>
      <point x="190" y="113"/>
      <point x="190" y="167"/>
      <point x="190" y="213" type="curve" smooth="yes"/>
      <point x="190" y="252"/>
      <point x="186" y="293"/>
      <point x="172" y="346" type="curve" smooth="yes"/>
      <point x="154" y="411"/>
      <point x="240" y="435"/>
      <point x="258" y="370" type="curve" smooth="yes"/>
      <point x="276" y="307"/>
      <point x="280" y="258"/>
      <point x="280" y="213" type="curve" smooth="yes"/>
      <point x="280" y="145"/>
      <point x="280" y="91"/>
      <point x="280" y="45" type="curve" smooth="yes"/>
      <point x="280" y="-7"/>
      <point x="273" y="-49"/>
      <point x="254" y="-82" type="curve" smooth="yes"/>
      <point x="222" y="-141"/>
      <point x="143" y="-97"/>
    </contour>
    <contour>
      <point x="208" y="571" type="curve" smooth="yes"/>
      <point x="209" y="571"/>
      <point x="184" y="553"/>
      <point x="183" y="555" type="curve" smooth="yes"/>
      <point x="158" y="617"/>
      <point x="241" y="652"/>
      <point x="267" y="589" type="curve" smooth="yes"/>
      <point x="292" y="528"/>
      <point x="267" y="497"/>
      <point x="242" y="487" type="curve" smooth="yes"/>
      <point x="179" y="462"/>
      <point x="146" y="546"/>
    </contour>
  </outline>
</glyph>
<glyph name="j" format="2">
  <advance width="245"/>
  <unicode hex="006A"/>
  <outline>
    <contour>
      <point x="264" y="380" type="curve" smooth="yes"/>
      <point x="285" y="314"/>
      <point x="294" y="239"/>
      <point x="294" y="158" type="curve" smooth="yes"/>
      <point x="294" y="74"/>
      <point x="294" y="-42"/>
      <point x="294" y="-137" type="curve" smooth="yes"/>
      <point x="294" y="-280"/>
      <point x="140" y="-264"/>
      <point x="39" y="-226" type="curve" smooth="yes"/>
      <point x="-24" y="-202"/>
      <point x="8" y="-118"/>
      <point x="71" y="-142" type="curve" smooth="yes"/>
      <point x="106" y="-155"/>
      <point x="204" y="-187"/>
      <point x="204" y="-137" type="curve" smooth="yes"/>
      <point x="204" y="4"/>
      <point x="204" y="102"/>
      <point x="204" y="158" type="curve" smooth="yes"/>
      <point x="204" y="229"/>
      <point x="197" y="294"/>
      <point x="178" y="352" type="curve" smooth="yes"/>
      <point x="157" y="416"/>
      <point x="243" y="444"/>
    </contour>
    <contour>
      <point x="210" y="541" type="curve" smooth="yes"/>
      <point x="210" y="542"/>
      <point x="206" y="548"/>
      <point x="206" y="549" type="curve" smooth="yes"/>
      <point x="187" y="614"/>
      <point x="273" y="640"/>
      <point x="292" y="575" type="curve" smooth="yes"/>
      <point x="303" y="538"/>
      <point x="297" y="514"/>
      <point x="288" y="497" type="curve" smooth="yes"/>
      <point x="256" y="438"/>
      <point x="177" y="482"/>
    </contour>
  </outline>
</glyph>
<glyph name="l" format="2">
  <advance width="231"/>
  <unicode hex="006C"/>
  <outline>
    <contour>
      <point x="184" y="-10" type="curve" smooth="yes"/>
      <point x="190" y="-7"/>
      <point x="190" y="49"/>
      <point x="190" y="58" type="curve" smooth="yes"/>
      <point x="190" y="216"/>
      <point x="190" y="341"/>
      <point x="190" y="447" type="curve" smooth="yes"/>
      <point x="190" y="483"/>
      <point x="190" y="524"/>
      <point x="172" y="581" type="curve" smooth="yes"/>
      <point x="152" y="646"/>
      <point x="237" y="673"/>
      <point x="258" y="609" type="curve" smooth="yes"/>
      <point x="280" y="540"/>
      <point x="280" y="491"/>
      <point x="280" y="447" type="curve" smooth="yes"/>
      <point x="280" y="289"/>
      <point x="280" y="164"/>
      <point x="280" y="58" type="curve" smooth="yes"/>
      <point x="280" y="-15"/>
      <point x="274" y="-64"/>
      <point x="226" y="-90" type="curve" smooth="yes"/>
      <point x="167" y="-121"/>
      <point x="124" y="-42"/>
    </contour>
  </outline>
</glyph>
<glyph name="n" format="2">
  <advance width="568"/>
  <unicode hex="006E"/>
  <outline>
    <contour>
      <point x="536" y="-10" type="curve" smooth="yes"/>
      <point x="540" y="-7"/>
      <point x="541" y="48"/>
      <point x="541" y="55" type="curve" smooth="yes"/>
      <point x="541" y="103"/>
      <point x="541" y="142"/>
      <point x="541" y="173" type="curve" smooth="yes"/>
      <point x="541" y="264"/>
      <point x="526" y="267"/>
      <point x="418" y="300" type="curve" smooth="yes"/>
      <point x="298" y="336"/>
      <point x="156" y="352"/>
      <point x="156" y="258" type="curve" smooth="yes"/>
      <point x="156" y="190"/>
      <point x="156" y="169"/>
      <point x="156" y="130" type="curve" smooth="yes"/>
      <point x="156" y="121"/>
      <point x="186" y="1"/>
      <point x="186" y="10" type="curve" smooth="yes"/>
      <point x="186" y="94"/>
      <point x="186" y="197"/>
      <point x="186" y="218" type="curve" smooth="yes"/>
      <point x="186" y="254"/>
      <point x="187" y="288"/>
      <point x="160" y="350" type="curve" smooth="yes"/>
      <point x="133" y="412"/>
      <point x="216" y="448"/>
      <point x="242" y="386" type="curve" smooth="yes"/>
      <point x="275" y="308"/>
      <point x="276" y="262"/>
      <point x="276" y="218" type="curve" smooth="yes"/>
      <point x="276" y="186"/>
      <point x="276" y="66"/>
      <point x="276" y="10" type="curve" smooth="yes"/>
      <point x="276" y="-178"/>
      <point x="66" y="-58"/>
      <point x="66" y="130" type="curve" smooth="yes"/>
      <point x="66" y="188"/>
      <point x="66" y="212"/>
      <point x="66" y="258" type="curve" smooth="yes"/>
      <point x="66" y="421"/>
      <point x="237" y="448"/>
      <point x="444" y="386" type="curve" smooth="yes"/>
      <point x="599" y="339"/>
      <point x="631" y="303"/>
      <point x="631" y="173" type="curve" smooth="yes"/>
      <point x="631" y="127"/>
      <point x="631" y="87"/>
      <point x="631" y="55" type="curve" smooth="yes"/>
      <point x="631" y="-17"/>
      <point x="624" y="-66"/>
      <point x="576" y="-90" type="curve" smooth="yes"/>
      <point x="516" y="-120"/>
      <point x="476" y="-40"/>
    </contour>
  </outline>
</glyph>
<glyph name="u" format="2">
  <advance width="568"/>
  <unicode hex="0075"/>
  <outline>
    <contour>
      <point x="246" y="368" type="curve" smooth="yes"/>
      <point x="272" y="254"/>
      <point x="267" y="175"/>
      <point x="267" y="87" type="curve" smooth="yes"/>
      <point x="267" y="3"/>
      <point x="305" y="-41"/>
      <point x="378" y="-41" type="curve" smooth="yes"/>
      <point x="467" y="-41"/>
      <point x="533" y="25"/>
      <point x="533" y="104" type="curve" smooth="yes"/>
      <point x="533" y="152"/>
      <point x="533" y="222"/>
      <point x="533" y="253" type="curve" smooth="yes"/>
      <point x="533" y="262"/>
      <point x="503" y="382"/>
      <point x="503" y="373" type="curve" smooth="yes"/>
      <point x="503" y="306"/>
      <point x="503" y="214"/>
      <point x="503" y="153" type="curve" smooth="yes"/>
      <point x="503" y="103"/>
      <point x="502" y="60"/>
      <point x="490" y="28" type="curve" smooth="yes"/>
      <point x="465" y="-34"/>
      <point x="381" y="-1"/>
      <point x="406" y="62" type="curve" smooth="yes"/>
      <point x="413" y="79"/>
      <point x="413" y="126"/>
      <point x="413" y="153" type="curve" smooth="yes"/>
      <point x="413" y="243"/>
      <point x="413" y="328"/>
      <point x="413" y="373" type="curve" smooth="yes"/>
      <point x="413" y="558"/>
      <point x="623" y="438"/>
      <point x="623" y="253" type="curve" smooth="yes"/>
      <point x="623" y="207"/>
      <point x="623" y="136"/>
      <point x="623" y="104" type="curve" smooth="yes"/>
      <point x="623" y="-21"/>
      <point x="519" y="-131"/>
      <point x="378" y="-131" type="curve" smooth="yes"/>
      <point x="259" y="-131"/>
      <point x="177" y="-51"/>
      <point x="177" y="87" type="curve" smooth="yes"/>
      <point x="177" y="167"/>
      <point x="182" y="244"/>
      <point x="158" y="348" type="curve" smooth="yes"/>
      <point x="143" y="414"/>
      <point x="231" y="434"/>
    </contour>
  </outline>
</glyph>
<glyph name="z" format="2">
  <advance width="474"/>
  <unicode hex="007A"/>
  <outline>
    <contour>
      <point x="208" y="387" type="curve" smooth="yes"/>
      <point x="258" y="378"/>
      <point x="299" y="378"/>
      <point x="348" y="378" type="curve" smooth="yes"/>
      <point x="389" y="378"/>
      <point x="417" y="378"/>
      <point x="454" y="378" type="curve" smooth="yes"/>
      <point x="460" y="378"/>
      <point x="399" y="368"/>
      <point x="395" y="363" type="curve" smooth="yes"/>
      <point x="366" y="329"/>
      <point x="346" y="306"/>
      <point x="320" y="276" type="curve" smooth="yes"/>
      <point x="289" y="239"/>
      <point x="254" y="198"/>
      <point x="223" y="162" type="curve" smooth="yes"/>
      <point x="198" y="133"/>
      <point x="183" y="113"/>
      <point x="156" y="82" type="curve" smooth="yes"/>
      <point x="128" y="49"/>
      <point x="228" y="-30"/>
      <point x="270" y="-30" type="curve" smooth="yes"/>
      <point x="316" y="-30"/>
      <point x="338" y="-30"/>
      <point x="364" y="-30" type="curve" smooth="yes"/>
      <point x="411" y="-30"/>
      <point x="457" y="-30"/>
      <point x="485" y="-22" type="curve" smooth="yes"/>
      <point x="550" y="-3"/>
      <point x="575" y="-89"/>
      <point x="511" y="-108" type="curve" smooth="yes"/>
      <point x="472" y="-120"/>
      <point x="428" y="-120"/>
      <point x="364" y="-120" type="curve" smooth="yes"/>
      <point x="325" y="-120"/>
      <point x="301" y="-120"/>
      <point x="270" y="-120" type="curve" smooth="yes"/>
      <point x="146" y="-120"/>
      <point x="5" y="43"/>
      <point x="88" y="140" type="curve" smooth="yes"/>
      <point x="113" y="171"/>
      <point x="130" y="191"/>
      <point x="155" y="220" type="curve" smooth="yes"/>
      <point x="186" y="256"/>
      <point x="221" y="297"/>
      <point x="252" y="334" type="curve" smooth="yes"/>
      <point x="278" y="364"/>
      <point x="298" y="387"/>
      <point x="327" y="421" type="curve" smooth="yes"/>
      <point x="447" y="561"/>
      <point x="617" y="288"/>
      <point x="454" y="288" type="curve" smooth="yes"/>
      <point x="399" y="288"/>
      <point x="376" y="288"/>
      <point x="348" y="288" type="curve" smooth="yes"/>
      <point x="293" y="288"/>
      <point x="248" y="288"/>
      <point x="192" y="299" type="curve" smooth="yes"/>
      <point x="125" y="311"/>
      <point x="142" y="400"/>
    </contour>
  </outline>
</glyph>
<glyph name="bar" format="2">
  <advance width="315"/>
  <unicode hex="007C"/>
  <outline>
    <contour>
      <point x="289" y="659" type="curve" smooth="yes"/>
      <point x="316" y="599"/>
      <point x="323" y="544"/>
      <point x="323" y="483" type="curve" smooth="yes"/>
      <point x="323" y="228"/>
      <point x="323" y="83"/>
      <point x="323" y="-87" type="curve" smooth="yes"/>
      <point x="323" y="-194"/>
      <point x="295" y="-233"/>
      <point x="248" y="-244" type="curve" smooth="yes"/>
      <point x="182" y="-259"/>
      <point x="162" y="-172"/>
      <point x="228" y="-156" type="curve" smooth="yes"/>
      <point x="230" y="-156"/>
      <point x="233" y="-92"/>
      <point x="233" y="-87" type="curve" smooth="yes"/>
      <point x="233" y="166"/>
      <point x="233" y="312"/>
      <point x="233" y="483" type="curve" smooth="yes"/>
      <point x="233" y="532"/>
      <point x="228" y="575"/>
      <point x="207" y="621" type="curve" smooth="yes"/>
      <point x="179" y="683"/>
      <point x="261" y="720"/>
    </contour>
  </outline>
</glyph>
<glyph name="sterling" format="2">
  <advance width="541"/>
  <unicode hex="00A3"/>
  <outline>
    <contour>
      <point x="550" y="481" type="curve" smooth="yes"/>
      <point x="518" y="466"/>
      <point x="448" y="478"/>
      <point x="424" y="478" type="curve" smooth="yes"/>
      <point x="359" y="478"/>
      <point x="319" y="445"/>
      <point x="319" y="377" type="curve" smooth="yes"/>
      <point x="319" y="300"/>
      <point x="379" y="126"/>
      <point x="332" y="64" type="curve" smooth="yes"/>
      <point x="289" y="8"/>
      <point x="207" y="0"/>
      <point x="142" y="0" type="curve" smooth="yes"/>
      <point x="135" y="0"/>
      <point x="260" y="-30"/>
      <point x="267" y="-30" type="curve" smooth="yes"/>
      <point x="308" y="-30"/>
      <point x="374" y="-30"/>
      <point x="426" y="-30" type="curve" smooth="yes"/>
      <point x="430" y="-30"/>
      <point x="501" y="-49"/>
      <point x="501" y="-46" type="curve" smooth="yes"/>
      <point x="499" y="21"/>
      <point x="589" y="24"/>
      <point x="591" y="-44" type="curve" smooth="yes"/>
      <point x="593" y="-120"/>
      <point x="530" y="-120"/>
      <point x="426" y="-120" type="curve" smooth="yes"/>
      <point x="349" y="-120"/>
      <point x="295" y="-120"/>
      <point x="267" y="-120" type="curve" smooth="yes"/>
      <point x="105" y="-120"/>
      <point x="-20" y="90"/>
      <point x="142" y="90" type="curve" smooth="yes"/>
      <point x="173" y="90"/>
      <point x="240" y="92"/>
      <point x="260" y="118" type="curve" smooth="yes"/>
      <point x="283" y="148"/>
      <point x="229" y="219"/>
      <point x="229" y="377" type="curve" smooth="yes"/>
      <point x="229" y="495"/>
      <point x="309" y="568"/>
      <point x="424" y="568" type="curve" smooth="yes"/>
      <point x="509" y="568"/>
      <point x="503" y="559"/>
      <point x="512" y="563" type="curve" smooth="yes"/>
      <point x="573" y="592"/>
      <point x="611" y="510"/>
    </contour>
    <contour>
      <point x="88" y="343" type="curve" smooth="yes"/>
      <point x="135" y="370"/>
      <point x="210" y="355"/>
      <point x="308" y="327" type="curve" smooth="yes"/>
      <point x="379" y="308"/>
      <point x="440" y="300"/>
      <point x="504" y="288" type="curve" smooth="yes"/>
      <point x="570" y="276"/>
      <point x="554" y="188"/>
      <point x="488" y="200" type="curve" smooth="yes"/>
      <point x="420" y="212"/>
      <point x="359" y="220"/>
      <point x="284" y="241" type="curve" smooth="yes"/>
      <point x="244" y="252"/>
      <point x="152" y="276"/>
      <point x="132" y="265" type="curve" smooth="yes"/>
      <point x="74" y="231"/>
      <point x="29" y="310"/>
    </contour>
  </outline>
</glyph>
<glyph name="currency" format="2">
  <advance width="646"/>
  <unicode hex="00A4"/>
  <outline>
    <contour>
      <point x="370" y="27" type="curve" smooth="yes"/>
      <point x="290" y="54"/>
      <point x="236" y="128"/>
      <point x="236" y="225" type="curve" smooth="yes"/>
      <point x="236" y="346"/>
      <point x="321" y="434"/>
      <point x="441" y="434" type="curve" smooth="yes"/>
      <point x="561" y="434"/>
      <point x="649" y="346"/>
      <point x="649" y="225" type="curve" smooth="yes"/>
      <point x="649" y="128"/>
      <point x="593" y="54"/>
      <point x="513" y="27" type="curve" smooth="yes"/>
      <point x="449" y="6"/>
      <point x="421" y="91"/>
      <point x="485" y="113" type="curve" smooth="yes"/>
      <point x="531" y="128"/>
      <point x="559" y="170"/>
      <point x="559" y="225" type="curve" smooth="yes"/>
      <point x="559" y="296"/>
      <point x="511" y="344"/>
      <point x="441" y="344" type="curve" smooth="yes"/>
      <point x="371" y="344"/>
      <point x="326" y="296"/>
      <point x="326" y="225" type="curve" smooth="yes"/>
      <point x="326" y="170"/>
      <point x="353" y="128"/>
      <point x="398" y="113" type="curve" smooth="yes"/>
      <point x="462" y="91"/>
      <point x="434" y="6"/>
    </contour>
    <contour>
      <point x="189" y="413" type="curve" smooth="yes"/>
      <point x="153" y="450"/>
      <point x="127" y="476"/>
      <point x="98" y="504" type="curve" smooth="yes"/>
      <point x="50" y="552"/>
      <point x="114" y="616"/>
      <point x="162" y="568" type="curve" smooth="yes"/>
      <point x="204" y="525"/>
      <point x="228" y="501"/>
      <point x="253" y="477" type="curve" smooth="yes"/>
      <point x="301" y="429"/>
      <point x="237" y="365"/>
    </contour>
    <contour>
      <point x="609" y="504" type="curve" smooth="yes"/>
      <point x="587" y="482"/>
      <point x="560" y="422"/>
      <point x="500" y="402" type="curve" smooth="yes"/>
      <point x="436" y="381"/>
      <point x="408" y="466"/>
      <point x="472" y="488" type="curve" smooth="yes"/>
      <point x="502" y="498"/>
      <point x="502" y="525"/>
      <point x="545" y="568" type="curve" smooth="yes"/>
      <point x="593" y="616"/>
      <point x="657" y="552"/>
    </contour>
    <contour>
      <point x="98" y="122" type="curve" smooth="yes"/>
      <point x="113" y="136"/>
      <point x="171" y="173"/>
      <point x="178" y="195" type="curve" smooth="yes"/>
      <point x="200" y="259"/>
      <point x="285" y="231"/>
      <point x="264" y="167" type="curve" smooth="yes"/>
      <point x="242" y="101"/>
      <point x="206" y="102"/>
      <point x="162" y="58" type="curve" smooth="yes"/>
      <point x="114" y="10"/>
      <point x="50" y="74"/>
    </contour>
    <contour>
      <point x="518" y="213" type="curve" smooth="yes"/>
      <point x="567" y="164"/>
      <point x="588" y="142"/>
      <point x="609" y="122" type="curve" smooth="yes"/>
      <point x="657" y="74"/>
      <point x="593" y="10"/>
      <point x="545" y="58" type="curve" smooth="yes"/>
      <point x="515" y="89"/>
      <point x="487" y="116"/>
      <point x="454" y="149" type="curve" smooth="yes"/>
      <point x="406" y="197"/>
      <point x="470" y="261"/>
    </contour>
  </outline>
</glyph>
<glyph name="copyright" format="2">
  <advance width="803"/>
  <unicode hex="00A9"/>
  <outline>
    <contour>
      <point x="559" y="314" type="curve" smooth="yes"/>
      <point x="519" y="320"/>
      <point x="465" y="285"/>
      <point x="465" y="220" type="curve" smooth="yes"/>
      <point x="465" y="166"/>
      <point x="499" y="133"/>
      <point x="532" y="171" type="curve" smooth="yes"/>
      <point x="576" y="223"/>
      <point x="644" y="164"/>
      <point x="600" y="113" type="curve" smooth="yes"/>
      <point x="514" y="12"/>
      <point x="375" y="77"/>
      <point x="375" y="220" type="curve" smooth="yes"/>
      <point x="375" y="353"/>
      <point x="493" y="416"/>
      <point x="573" y="402" type="curve" smooth="yes"/>
      <point x="640" y="391"/>
      <point x="625" y="303"/>
    </contour>
    <contour>
      <point x="454" y="-90" type="curve" smooth="yes"/>
      <point x="417" y="-107"/>
      <point x="372" y="-103"/>
      <point x="320" y="-67" type="curve" smooth="yes"/>
      <point x="232" y="-5"/>
      <point x="177" y="97"/>
      <point x="177" y="220" type="curve" smooth="yes"/>
      <point x="177" y="421"/>
      <point x="324" y="569"/>
      <point x="526" y="569" type="curve" smooth="yes"/>
      <point x="727" y="569"/>
      <point x="866" y="421"/>
      <point x="866" y="220" type="curve" smooth="yes"/>
      <point x="866" y="97"/>
      <point x="814" y="-5"/>
      <point x="730" y="-66" type="curve" smooth="yes"/>
      <point x="688" y="-96"/>
      <point x="628" y="-108"/>
      <point x="548" y="-93" type="curve" smooth="yes"/>
      <point x="481" y="-81"/>
      <point x="498" y="8"/>
      <point x="564" y="-5" type="curve" smooth="yes"/>
      <point x="611" y="-14"/>
      <point x="652" y="-11"/>
      <point x="676" y="6" type="curve" smooth="yes"/>
      <point x="740" y="52"/>
      <point x="776" y="129"/>
      <point x="776" y="220" type="curve" smooth="yes"/>
      <point x="776" y="371"/>
      <point x="677" y="479"/>
      <point x="526" y="479" type="curve" smooth="yes"/>
      <point x="374" y="479"/>
      <point x="267" y="371"/>
      <point x="267" y="220" type="curve" smooth="yes"/>
      <point x="267" y="129"/>
      <point x="306" y="53"/>
      <point x="370" y="7" type="curve" smooth="yes"/>
      <point x="385" y="-3"/>
      <point x="405" y="-13"/>
      <point x="416" y="-8" type="curve" smooth="yes"/>
      <point x="476" y="21"/>
      <point x="515" y="-60"/>
    </contour>
  </outline>
</glyph>
<glyph name="degree" format="2">
  <advance width="532"/>
  <unicode hex="00B0"/>
  <outline>
    <contour>
      <point x="297" y="191" type="curve" smooth="yes"/>
      <point x="234" y="192"/>
      <point x="180" y="250"/>
      <point x="180" y="361" type="curve" smooth="yes"/>
      <point x="180" y="482"/>
      <point x="265" y="570"/>
      <point x="385" y="570" type="curve" smooth="yes"/>
      <point x="505" y="570"/>
      <point x="593" y="482"/>
      <point x="593" y="361" type="curve" smooth="yes"/>
      <point x="593" y="261"/>
      <point x="522" y="192"/>
      <point x="414" y="191" type="curve" smooth="yes"/>
      <point x="346" y="190"/>
      <point x="345" y="280"/>
      <point x="412" y="281" type="curve" smooth="yes"/>
      <point x="469" y="282"/>
      <point x="503" y="309"/>
      <point x="503" y="361" type="curve" smooth="yes"/>
      <point x="503" y="432"/>
      <point x="455" y="480"/>
      <point x="385" y="480" type="curve" smooth="yes"/>
      <point x="315" y="480"/>
      <point x="270" y="432"/>
      <point x="270" y="361" type="curve" smooth="yes"/>
      <point x="270" y="328"/>
      <point x="280" y="281"/>
      <point x="299" y="281" type="curve" smooth="yes"/>
      <point x="367" y="279"/>
      <point x="364" y="189"/>
    </contour>
  </outline>
</glyph>
<glyph name="plusminus" format="2">
  <advance width="540"/>
  <unicode hex="00B1"/>
  <outline>
    <contour>
      <point x="424" y="405" type="curve" smooth="yes"/>
      <point x="383" y="357"/>
      <point x="392" y="247"/>
      <point x="433" y="118" type="curve" smooth="yes"/>
      <point x="453" y="53"/>
      <point x="367" y="26"/>
      <point x="347" y="90" type="curve" smooth="yes"/>
      <point x="289" y="275"/>
      <point x="298" y="396"/>
      <point x="356" y="463" type="curve" smooth="yes"/>
      <point x="400" y="515"/>
      <point x="468" y="456"/>
    </contour>
    <contour>
      <point x="605" y="221" type="curve" smooth="yes"/>
      <point x="521" y="165"/>
      <point x="384" y="159"/>
      <point x="188" y="215" type="curve" smooth="yes"/>
      <point x="123" y="233"/>
      <point x="147" y="320"/>
      <point x="212" y="301" type="curve" smooth="yes"/>
      <point x="365" y="258"/>
      <point x="490" y="252"/>
      <point x="555" y="295" type="curve" smooth="yes"/>
      <point x="611" y="333"/>
      <point x="661" y="258"/>
    </contour>
    <contour>
      <point x="605" y="-79" type="curve" smooth="yes"/>
      <point x="521" y="-135"/>
      <point x="384" y="-141"/>
      <point x="188" y="-85" type="curve" smooth="yes"/>
      <point x="123" y="-67"/>
      <point x="147" y="20"/>
      <point x="212" y="1" type="curve" smooth="yes"/>
      <point x="365" y="-42"/>
      <point x="490" y="-48"/>
      <point x="555" y="-5" type="curve" smooth="yes"/>
      <point x="611" y="33"/>
      <point x="661" y="-42"/>
    </contour>
  </outline>
</glyph>
<glyph name="periodcentered" format="2">
  <advance width="260"/>
  <unicode hex="00B7"/>
  <outline>
    <contour>
      <point x="253" y="125" type="curve" smooth="yes"/>
      <point x="169" y="138"/>
      <point x="169" y="246"/>
      <point x="253" y="259" type="curve" smooth="yes"/>
      <point x="320" y="268"/>
      <point x="333" y="179"/>
      <point x="267" y="169" type="curve" smooth="yes"/>
      <point x="264" y="169"/>
      <point x="264" y="215"/>
      <point x="267" y="215" type="curve" smooth="yes"/>
      <point x="333" y="205"/>
      <point x="320" y="116"/>
    </contour>
  </outline>
</glyph>
<glyph name="onequarter" format="2">
  <advance width="899"/>
  <unicode hex="00BC"/>
  <outline>
    <contour>
      <point x="191" y="541" type="curve" smooth="yes"/>
      <point x="337" y="572"/>
      <point x="355" y="521"/>
      <point x="355" y="432" type="curve" smooth="yes"/>
      <point x="355" y="333"/>
      <point x="355" y="256"/>
      <point x="355" y="191" type="curve" smooth="yes"/>
      <point x="355" y="124"/>
      <point x="265" y="124"/>
      <point x="265" y="191" type="curve" smooth="yes"/>
      <point x="265" y="288"/>
      <point x="265" y="366"/>
      <point x="265" y="432" type="curve" smooth="yes"/>
      <point x="265" y="467"/>
      <point x="267" y="465"/>
      <point x="209" y="453" type="curve" smooth="yes"/>
      <point x="143" y="439"/>
      <point x="125" y="527"/>
    </contour>
    <contour>
      <point x="770" y="496" type="curve" smooth="yes"/>
      <point x="394" y="-104" type="line" smooth="yes"/>
      <point x="358" y="-161"/>
      <point x="282" y="-113"/>
      <point x="318" y="-56" type="curve" smooth="yes"/>
      <point x="694" y="544" type="line" smooth="yes"/>
      <point x="730" y="601"/>
      <point x="806" y="553"/>
    </contour>
    <contour>
      <point x="939" y="-32" type="curve" smooth="yes"/>
      <point x="866" y="-32"/>
      <point x="806" y="-32"/>
      <point x="756" y="-32" type="curve" smooth="yes"/>
      <point x="659" y="-32"/>
      <point x="616" y="28"/>
      <point x="665" y="115" type="curve" smooth="yes"/>
      <point x="684" y="150"/>
      <point x="692" y="164"/>
      <point x="719" y="212" type="curve" smooth="yes"/>
      <point x="783" y="327"/>
      <point x="906" y="311"/>
      <point x="906" y="180" type="curve" smooth="yes"/>
      <point x="906" y="101"/>
      <point x="906" y="-5"/>
      <point x="906" y="-80" type="curve" smooth="yes"/>
      <point x="906" y="-147"/>
      <point x="816" y="-147"/>
      <point x="816" y="-80" type="curve" smooth="yes"/>
      <point x="816" y="32"/>
      <point x="816" y="127"/>
      <point x="816" y="180" type="curve" smooth="yes"/>
      <point x="816" y="200"/>
      <point x="807" y="186"/>
      <point x="797" y="168" type="curve" smooth="yes"/>
      <point x="770" y="120"/>
      <point x="762" y="106"/>
      <point x="743" y="71" type="curve" smooth="yes"/>
      <point x="735" y="56"/>
      <point x="739" y="58"/>
      <point x="756" y="58" type="curve" smooth="yes"/>
      <point x="830" y="58"/>
      <point x="890" y="58"/>
      <point x="939" y="58" type="curve" smooth="yes"/>
      <point x="1007" y="58"/>
      <point x="1007" y="-32"/>
    </contour>
  </outline>
</glyph>
<glyph name="questiondown" format="2">
  <advance width="511"/>
  <unicode hex="00BF"/>
  <outline>
    <contour>
      <point x="570" y="-194" type="curve" smooth="yes"/>
      <point x="511" y="-218"/>
      <point x="452" y="-229"/>
      <point x="400" y="-229" type="curve" smooth="yes"/>
      <point x="263" y="-229"/>
      <point x="169" y="-154"/>
      <point x="169" y="-50" type="curve" smooth="yes"/>
      <point x="169" y="20"/>
      <point x="216" y="86"/>
      <point x="303" y="123" type="curve" smooth="yes"/>
      <point x="364" y="148"/>
      <point x="370" y="159"/>
      <point x="370" y="193" type="curve" smooth="yes"/>
      <point x="370" y="261"/>
      <point x="460" y="261"/>
      <point x="460" y="193" type="curve" smooth="yes"/>
      <point x="460" y="133"/>
      <point x="446" y="85"/>
      <point x="337" y="39" type="curve" smooth="yes"/>
      <point x="291" y="20"/>
      <point x="259" y="-13"/>
      <point x="259" y="-50" type="curve" smooth="yes"/>
      <point x="259" y="-107"/>
      <point x="324" y="-139"/>
      <point x="400" y="-139" type="curve" smooth="yes"/>
      <point x="442" y="-139"/>
      <point x="489" y="-130"/>
      <point x="536" y="-110" type="curve" smooth="yes"/>
      <point x="598" y="-85"/>
      <point x="633" y="-168"/>
    </contour>
    <contour>
      <point x="459" y="423" type="curve" smooth="yes"/>
      <point x="459" y="406"/>
      <point x="459" y="381"/>
      <point x="459" y="369" type="curve" smooth="yes"/>
      <point x="459" y="302"/>
      <point x="369" y="302"/>
      <point x="369" y="369" type="curve" smooth="yes"/>
      <point x="369" y="387"/>
      <point x="369" y="412"/>
      <point x="369" y="423" type="curve" smooth="yes"/>
      <point x="369" y="491"/>
      <point x="459" y="491"/>
    </contour>
  </outline>
</glyph>
<glyph name="ring" format="2">
  <advance width="420"/>
  <unicode hex="02DA"/>
  <outline>
    <contour>
      <point x="252" y="432" type="curve" smooth="yes"/>
      <point x="218" y="454"/>
      <point x="197" y="492"/>
      <point x="197" y="540" type="curve" smooth="yes"/>
      <point x="197" y="612"/>
      <point x="250" y="664"/>
      <point x="329" y="664" type="curve" smooth="yes"/>
      <point x="428" y="664"/>
      <point x="469" y="593"/>
      <point x="438" y="538" type="curve" smooth="yes"/>
      <point x="421" y="508"/>
      <point x="385" y="486"/>
      <point x="334" y="479" type="curve" smooth="yes"/>
      <point x="267" y="471"/>
      <point x="257" y="561"/>
      <point x="324" y="569" type="curve" smooth="yes"/>
      <point x="336" y="570"/>
      <point x="356" y="576"/>
      <point x="360" y="582" type="curve" smooth="yes"/>
      <point x="361" y="584"/>
      <point x="333" y="574"/>
      <point x="329" y="574" type="curve" smooth="yes"/>
      <point x="303" y="574"/>
      <point x="287" y="564"/>
      <point x="287" y="540" type="curve" smooth="yes"/>
      <point x="287" y="526"/>
      <point x="291" y="514"/>
      <point x="300" y="508" type="curve" smooth="yes"/>
      <point x="357" y="472"/>
      <point x="309" y="396"/>
    </contour>
  </outline>
</glyph>
<glyph name="endash" format="2">
  <advance width="555"/>
  <unicode hex="2013"/>
  <outline>
    <contour>
      <point x="574" y="188" type="curve" smooth="yes"/>
      <point x="543" y="154"/>
      <point x="492" y="143"/>
      <point x="399" y="143" type="curve" smooth="yes"/>
      <point x="325" y="143"/>
      <point x="258" y="149"/>
      <point x="180" y="175" type="curve" smooth="yes"/>
      <point x="117" y="197"/>
      <point x="146" y="282"/>
      <point x="210" y="261" type="curve" smooth="yes"/>
      <point x="277" y="237"/>
      <point x="335" y="233"/>
      <point x="399" y="233" type="curve" smooth="yes"/>
      <point x="433" y="233"/>
      <point x="495" y="235"/>
      <point x="506" y="248" type="curve" smooth="yes"/>
      <point x="551" y="298"/>
      <point x="618" y="239"/>
    </contour>
  </outline>
</glyph>
<glyph name="quotedblbase" format="2">
  <advance width="474"/>
  <unicode hex="201E"/>
  <outline>
    <contour>
      <point x="196" y="-211" type="curve" smooth="yes"/>
      <point x="221" y="-169"/>
      <point x="245" y="-96"/>
      <point x="219" y="-72" type="curve" smooth="yes"/>
      <point x="169" y="-27"/>
      <point x="229" y="40"/>
      <point x="279" y="-6" type="curve" smooth="yes"/>
      <point x="337" y="-58"/>
      <point x="330" y="-160"/>
      <point x="274" y="-257" type="curve" smooth="yes"/>
      <point x="240" y="-315"/>
      <point x="162" y="-270"/>
    </contour>
    <contour>
      <point x="396" y="-211" type="curve" smooth="yes"/>
      <point x="421" y="-169"/>
      <point x="445" y="-96"/>
      <point x="419" y="-72" type="curve" smooth="yes"/>
      <point x="369" y="-27"/>
      <point x="429" y="40"/>
      <point x="479" y="-6" type="curve" smooth="yes"/>
      <point x="537" y="-58"/>
      <point x="530" y="-160"/>
      <point x="474" y="-257" type="curve" smooth="yes"/>
      <point x="440" y="-315"/>
      <point x="362" y="-270"/>
    </contour>
  </outline>
</glyph>
<glyph name="ellipsis" format="2">
  <advance width="780"/>
  <unicode hex="2026"/>
  <outline>
    <contour>
      <point x="253" y="-125" type="curve" smooth="yes"/>
      <point x="169" y="-112"/>
      <point x="169" y="-4"/>
      <point x="253" y="9" type="curve" smooth="yes"/>
      <point x="320" y="18"/>
      <point x="333" y="-71"/>
      <point x="267" y="-81" type="curve" smooth="yes"/>
      <point x="264" y="-81"/>
      <point x="264" y="-35"/>
      <point x="267" y="-35" type="curve" smooth="yes"/>
      <point x="333" y="-45"/>
      <point x="320" y="-134"/>
    </contour>
    <contour>
      <point x="513" y="-125" type="curve" smooth="yes"/>
      <point x="429" y="-112"/>
      <point x="429" y="-4"/>
      <point x="513" y="9" type="curve" smooth="yes"/>
      <point x="580" y="18"/>
      <point x="593" y="-71"/>
      <point x="527" y="-81" type="curve" smooth="yes"/>
      <point x="524" y="-81"/>
      <point x="524" y="-35"/>
      <point x="527" y="-35" type="curve" smooth="yes"/>
      <point x="593" y="-45"/>
      <point x="580" y="-134"/>
    </contour>
    <contour>
      <point x="773" y="-125" type="curve" smooth="yes"/>
      <point x="689" y="-112"/>
      <point x="689" y="-4"/>
      <point x="773" y="9" type="curve" smooth="yes"/>
      <point x="840" y="18"/>
      <point x="853" y="-71"/>
      <point x="787" y="-81" type="curve" smooth="yes"/>
      <point x="784" y="-81"/>
      <point x="784" y="-35"/>
      <point x="787" y="-35" type="curve" smooth="yes"/>
      <point x="853" y="-45"/>
      <point x="840" y="-134"/>
    </contour>
  </outline>
</glyph>
<glyph name="fraction" format="2">
  <advance width="568"/>
  <unicode hex="2044"/>
  <outline>
    <contour>
      <point x="607" y="550" type="curve" smooth="yes"/>
      <point x="607" y="462"/>
      <point x="574" y="406"/>
      <point x="540" y="353" type="curve" smooth="yes"/>
      <point x="486" y="266"/>
      <point x="423" y="166"/>
      <point x="355" y="56" type="curve" smooth="yes"/>
      <point x="315" y="-9"/>
      <point x="267" y="-73"/>
      <point x="153" y="-65" type="curve" smooth="yes"/>
      <point x="85" y="-60"/>
      <point x="92" y="30"/>
      <point x="159" y="25" type="curve" smooth="yes"/>
      <point x="231" y="20"/>
      <point x="254" y="63"/>
      <point x="279" y="104" type="curve" smooth="yes"/>
      <point x="333" y="191"/>
      <point x="396" y="291"/>
      <point x="464" y="401" type="curve" smooth="yes"/>
      <point x="490" y="442"/>
      <point x="517" y="484"/>
      <point x="517" y="550" type="curve" smooth="yes"/>
      <point x="517" y="618"/>
      <point x="607" y="618"/>
    </contour>
  </outline>
</glyph>
<glyph name="divisionslash" format="2">
  <advance width="518"/>
  <unicode hex="2215"/>
  <outline>
    <contour>
      <point x="582" y="603" type="curve" smooth="yes"/>
      <point x="587" y="534"/>
      <point x="573" y="484"/>
      <point x="551" y="442" type="curve" smooth="yes"/>
      <point x="478" y="301"/>
      <point x="403" y="159"/>
      <point x="329" y="18" type="curve" smooth="yes"/>
      <point x="291" y="-55"/>
      <point x="254" y="-120"/>
      <point x="183" y="-159" type="curve" smooth="yes"/>
      <point x="123" y="-192"/>
      <point x="80" y="-113"/>
      <point x="139" y="-81" type="curve" smooth="yes"/>
      <point x="192" y="-52"/>
      <point x="221" y="6"/>
      <point x="249" y="60" type="curve" smooth="yes"/>
      <point x="323" y="201"/>
      <point x="398" y="343"/>
      <point x="471" y="484" type="curve" smooth="yes"/>
      <point x="487" y="514"/>
      <point x="495" y="548"/>
      <point x="492" y="597" type="curve" smooth="yes"/>
      <point x="488" y="664"/>
      <point x="577" y="670"/>
    </contour>
  </outline>
</glyph>
<glyph name="A" format="2">
  <advance width="651"/>
  <outline>
    <contour>
      <point x="32.54298481211095" y="55.824528160273765" type="curve" smooth="yes"/>
      <point x="37.87135869053379" y="71.81783527175722"/>
      <point x="43.6319997457257" y="86.3400068834166"/>
      <point x="54.33392304444813" y="114.04304316495727" type="curve" smooth="yes"/>
      <point x="61.04862205030396" y="131.4247366219694"/>
      <point x="67.9286541566155" y="152.35501932115153"/>
      <point x="78.38842075028555" y="179.18659260732605" type="curve" smooth="yes"/>
      <point x="97.78084846431474" y="228.9323819369562"/>
      <point x="142.72792920161623" y="268.0261804260349"/>
      <point x="211.97382081567986" y="268.0261804260349" type="curve" smooth="yes"/>
      <point x="340.9738188508975" y="268.0261804260349" type="line" smooth="yes"/>
      <point x="463.0683422508695" y="268.0261804260349"/>
      <point x="449.3261561791014" y="253.3845201046778"/>
      <point x="449.3422470367715" y="253.3684292467627" type="curve" smooth="yes"/>
      <point x="449.3685125899932" y="253.34216369314103"/>
      <point x="535.0535841899979" y="168.00000048738787"/>
      <point x="340.99999878914576" y="168.00000048738787" type="curve" smooth="yes"/>
      <point x="233.00000043407982" y="168.00000048738787" type="line" smooth="yes"/>
      <point x="128.30059291349596" y="168.00000048738787"/>
      <point x="107.32232270000027" y="250.13116379822358"/>
      <point x="145.91660830195357" y="357.87353526984987" type="curve" smooth="yes"/>
      <point x="168.99257515153414" y="422.2939372437787"/>
      <point x="200.41073418410744" y="507.59152859634224"/>
      <point x="229.3962865741729" y="582.1258001956836" type="curve" smooth="yes"/>
      <point x="288.92915880670057" y="735.2103165214421"/>
      <point x="378.55689999793054" y="731.7868944062828"/>
      <point x="432.0298365515879" y="582.9297881339927" type="curve" smooth="yes"/>
      <point x="596.954393385375" y="130.13831271596516" type="line" smooth="yes"/>
      <point x="611.0568603990417" y="90.85446915636977"/>
      <point x="618.0846115763917" y="70.78198245317678"/>
      <point x="623.0644780649503" y="56.84179561219585" type="curve" smooth="yes"/>
      <point x="648.2952271603704" y="-13.786876328340867"/>
      <point x="554.123664572988" y="-47.427875122234326"/>
      <point x="528.892915477568" y="23.200796818302397" type="curve" smooth="yes"/>
      <point x="523.9772099472393" y="36.96137728877567"/>
      <point x="517.1190003572283" y="56.56208844276807"/>
      <point x="502.99323155295014" y="95.91405133458747" type="curve" smooth="yes"/>
      <point x="337.91782101126273" y="549.1225621173909" type="line" smooth="yes"/>
      <point x="329.88865546775423" y="571.474024850105"/>
      <point x="331.53584076481764" y="568.8673960456576"/>
      <point x="322.5967527467909" y="545.8811715563019" type="curve" smooth="yes"/>
      <point x="293.97400665161695" y="472.27983035474955"/>
      <point x="262.84609631050085" y="387.7649614035322"/>
      <point x="240.0589666692325" y="324.1508965675355" type="curve" smooth="yes"/>
      <point x="234.99312507330532" y="310.0087566488429"/>
      <point x="219.25727646823285" y="268.00000048738787"/>
      <point x="233.00000043407982" y="268.00000048738787" type="curve" smooth="yes"/>
      <point x="340.99999878914576" y="268.00000048738787" type="line" smooth="yes"/>
      <point x="344.6955763573455" y="268.00000048738787"/>
      <point x="378.63206858365623" y="182.65725146256082"/>
      <point x="378.63156837956467" y="182.65775166666006" type="curve" smooth="yes"/>
      <point x="378.6310813387784" y="182.65823870745368"/>
      <point x="344.66939641909727" y="168.02618042603487"/>
      <point x="340.9738188508975" y="168.02618042603487" type="curve" smooth="yes"/>
      <point x="211.97382081567986" y="168.02618042603487" type="line" smooth="yes"/>
      <point x="189.3048569363426" y="168.02618042603487"/>
      <point x="177.90770129171904" y="159.15100330216123"/>
      <point x="171.55922005860714" y="142.86576998106298" type="curve" smooth="yes"/>
      <point x="161.7927690773556" y="117.81270183632387"/>
      <point x="154.80683389007925" y="96.62319216281051"/>
      <point x="147.6154598647165" y="78.00757607420185" type="curve" smooth="yes"/>
      <point x="138.26657903601924" y="53.807030288182446"/>
      <point x="132.07087758036542" y="38.18759476388548"/>
      <point x="127.41616916864785" y="24.216318940981346" type="curve" smooth="yes"/>
      <point x="103.71001225417852" y="-46.93856932642132"/>
      <point x="8.836827897641623" y="-15.330360107128904"/>
    </contour>
  </outline>
</glyph>
<glyph name="acute.cap" format="2">
  <advance width="408"/>
  <outline>
    <contour>
      <point x="407" y="744" type="curve" smooth="yes"/>
      <point x="316" y="638" type="line" smooth="yes"/>
      <point x="272" y="586"/>
      <point x="204" y="645"/>
      <point x="248" y="696" type="curve" smooth="yes"/>
      <point x="339" y="802" type="line" smooth="yes"/>
      <point x="383" y="854"/>
      <point x="451" y="795"/>
    </contour>
  </outline>
</glyph>
<glyph name="circumflex.cap" format="2">
  <advance width="562"/>
  <outline>
    <contour>
      <point x="249" y="701" type="curve" smooth="yes"/>
      <point x="371" y="807" type="line" smooth="yes"/>
      <point x="388" y="822"/>
      <point x="414" y="822"/>
      <point x="431" y="807" type="curve" smooth="yes"/>
      <point x="553" y="701" type="line" smooth="yes"/>
      <point x="603" y="657"/>
      <point x="544" y="589"/>
      <point x="493" y="633" type="curve" smooth="yes"/>
      <point x="371" y="739" type="line"/>
      <point x="431" y="739" type="line"/>
      <point x="309" y="633" type="line" smooth="yes"/>
      <point x="258" y="589"/>
      <point x="199" y="657"/>
    </contour>
  </outline>
</glyph>
<glyph name="grave.cap" format="2">
  <advance width="408"/>
  <outline>
    <contour>
      <point x="332" y="638" type="curve" smooth="yes"/>
      <point x="241" y="744" type="line" smooth="yes"/>
      <point x="197" y="795"/>
      <point x="265" y="854"/>
      <point x="309" y="802" type="curve" smooth="yes"/>
      <point x="400" y="696" type="line" smooth="yes"/>
      <point x="444" y="645"/>
      <point x="376" y="586"/>
    </contour>
  </outline>
</glyph>
<glyph name="p" format="2">
  <advance width="623"/>
  <outline>
    <contour>
      <point x="66.9807942837224" y="-121.99208494607834" type="curve" smooth="yes"/>
      <point x="66.9771731788963" y="-105.95421714069323"/>
      <point x="66.97381325838197" y="-70.56527173639624"/>
      <point x="66.97381498225636" y="-13.973814517316" type="curve" smooth="yes"/>
      <point x="66.97382366385273" y="271.02618114188584" type="line" smooth="yes"/>
      <point x="66.97382861640384" y="433.6088424802871"/>
      <point x="176.9499825195504" y="547.0261761766219"/>
      <point x="319.9738274563395" y="547.0261761766219" type="curve" smooth="yes"/>
      <point x="462.9976723931285" y="547.0261761766219"/>
      <point x="572.9738223717468" y="431.6088394645746"/>
      <point x="572.9738174191956" y="269.02617812617325" type="curve" smooth="yes"/>
      <point x="572.973812449216" y="105.87137308365094"/>
      <point x="456.36425166105096" y="-9.967778926744115"/>
      <point x="318.9788675922336" y="-9.9759111703668" type="curve" smooth="yes"/>
      <point x="174.81321360111548" y="-9.98444475804227"/>
      <point x="66.99999853017786" y="104.49859063107756"/>
      <point x="67.00000348025401" y="267.0000012641624" type="curve" smooth="yes"/>
      <point x="67.00000626983228" y="358.57645207112506"/>
      <point x="66.99215338127274" y="394.4625879614567"/>
      <point x="66.99215482958434" y="442.0078525803539" type="curve" smooth="yes"/>
      <point x="66.9921556525978" y="469.02579277139125"/>
      <point x="66.99355284694917" y="492.01465256081383"/>
      <point x="66.99652218294968" y="502.0183280447869" type="curve" smooth="yes"/>
      <point x="67.01878401966991" y="577.0183247408577"/>
      <point x="167.01877961443097" y="576.9886422918975"/>
      <point x="166.99651777771072" y="501.9886455958267" type="curve" smooth="yes"/>
      <point x="166.99333399950677" y="491.26251559228285"/>
      <point x="166.9921557120348" y="470.9769958625794"/>
      <point x="166.99215482958428" y="442.0078495341798" type="curve" smooth="yes"/>
      <point x="166.9921528995387" y="378.64819091902416"/>
      <point x="167.00000557241185" y="335.68148828912996"/>
      <point x="167.00000348025395" y="266.99999821798804" type="curve" smooth="yes"/>
      <point x="167.0000003312496" y="163.62428449605818"/>
      <point x="227.26157596407475" y="90.01865998946637"/>
      <point x="318.97294829899505" y="90.02408865444303" type="curve" smooth="yes"/>
      <point x="405.4652283100612" y="90.02920838604548"/>
      <point x="472.9738142902974" y="166.31051619433137"/>
      <point x="472.9738174191956" y="269.0261811723476" type="curve" smooth="yes"/>
      <point x="472.97382056505177" y="372.298545024484"/>
      <point x="410.8224482886701" y="447.0261761766219"/>
      <point x="319.9738274563395" y="447.0261761766219" type="curve" smooth="yes"/>
      <point x="229.07975959007592" y="447.0261761766219"/>
      <point x="166.97382681128246" y="374.35020396078045"/>
      <point x="166.97382366385267" y="271.0261780957116" type="curve" smooth="yes"/>
      <point x="166.9738149822563" y="-13.973817563490215" type="line" smooth="yes"/>
      <point x="166.9738130523095" y="-77.33023262983036"/>
      <point x="166.97673776212628" y="-104.01446769046824"/>
      <point x="166.98079173478646" y="-121.96950647880473" type="curve" smooth="yes"/>
      <point x="166.99772558524165" y="-196.96950456710277"/>
      <point x="66.99772813417759" y="-196.99208303437638"/>
    </contour>
  </outline>
</glyph>
<glyph name="ring.cap" format="2">
  <advance width="420"/>
  <outline>
    <contour>
      <point x="329" y="684" type="curve" smooth="yes"/>
      <point x="358" y="684"/>
      <point x="374" y="696"/>
      <point x="374" y="723" type="curve" smooth="yes"/>
      <point x="374" y="747"/>
      <point x="356" y="757"/>
      <point x="329" y="757" type="curve" smooth="yes"/>
      <point x="303" y="757"/>
      <point x="287" y="747"/>
      <point x="287" y="723" type="curve" smooth="yes"/>
      <point x="287" y="696"/>
      <point x="301" y="684"/>
    </contour>
    <contour>
      <point x="329" y="594" type="curve" smooth="yes"/>
      <point x="249" y="594"/>
      <point x="197" y="648"/>
      <point x="197" y="723" type="curve" smooth="yes"/>
      <point x="197" y="795"/>
      <point x="250" y="847"/>
      <point x="329" y="847" type="curve" smooth="yes"/>
      <point x="410" y="847"/>
      <point x="464" y="795"/>
      <point x="464" y="723" type="curve" smooth="yes"/>
      <point x="464" y="648"/>
      <point x="410" y="594"/>
    </contour>
  </outline>
</glyph>
<glyph name="tilde.cap" format="2">
  <advance width="565"/>
  <outline>
    <contour>
      <point x="597" y="773" type="curve" smooth="yes"/>
      <point x="597" y="686"/>
      <point x="549" y="621"/>
      <point x="474" y="621" type="curve" smooth="yes"/>
      <point x="367" y="621"/>
      <point x="371" y="728"/>
      <point x="327" y="728" type="curve" smooth="yes"/>
      <point x="304" y="728"/>
      <point x="296" y="693"/>
      <point x="296" y="666" type="curve" smooth="yes"/>
      <point x="296" y="599"/>
      <point x="206" y="599"/>
      <point x="206" y="666" type="curve" smooth="yes"/>
      <point x="206" y="753"/>
      <point x="253" y="818"/>
      <point x="327" y="818" type="curve" smooth="yes"/>
      <point x="432" y="818"/>
      <point x="429" y="711"/>
      <point x="474" y="711" type="curve" smooth="yes"/>
      <point x="499" y="711"/>
      <point x="507" y="745"/>
      <point x="507" y="773" type="curve" smooth="yes"/>
      <point x="507" y="841"/>
      <point x="597" y="841"/>
    </contour>
  </outline>
</glyph>
